<!-- ARIA ONE TYPEFACE v1.0 SVG MASTER SHEET -->
<svg xmlns="http://www.w3.org/2000/svg" width="12000" height="5000" viewBox="0 0 12000 5000">

  <!-- ROW 1: A–N -->
  <g id="A" transform="translate(0,0)">
    <path d="M500 180 L280 780 L720 780 Z" stroke="black" fill="none" stroke-width="18" stroke-linejoin="miter"/>
  </g>
  <g id="B" transform="translate(1000,0)">
    <path d="M280 180 L280 780
      M280 180 A220 220 0 0 1 560 390
      M280 390 A250 250 0 0 0 600 780" stroke="black" fill="none" stroke-width="18" stroke-linejoin="miter"/>
  </g>
  <g id="C" transform="translate(2000,0)">
    <path d="M620 220 A320 320 0 0 0 620 740" stroke="black" fill="none" stroke-width="18"/>
  </g>
  <g id="D" transform="translate(3000,0)">
    <path d="M280 180 L280 780
      M280 180 A320 320 0 0 1 280 780" stroke="black" fill="none" stroke-width="18"/>
  </g>
  <g id="E" transform="translate(4000,0)">
    <path d="M280 180 L280 780
      M320 180 L720 180
      M320 480 L620 480
      M320 780 L720 780" stroke="black" fill="none" stroke-width="18"/>
  </g>
  <g id="F" transform="translate(5000,0)">
    <path d="M280 180 L280 780
      M320 180 L720 180
      M320 480 L600 480" stroke="black" fill="none" stroke-width="18"/>
  </g>
  <g id="G" transform="translate(6000,0)">
    <path d="M620 220 A320 320 0 0 0 620 740
      M500 740 L680 740" stroke="black" fill="none" stroke-width="18"/>
  </g>
  <g id="H" transform="translate(7000,0)">
    <path d="M280 180 L280 780
      M720 180 L720 780
      M330 480 L670 480" stroke="black" fill="none" stroke-width="18"/>
  </g>
  <g id="I" transform="translate(8000,0)">
    <path d="M500 180 L500 780" stroke="black" fill="none" stroke-width="18"/>
  </g>
  <g id="J" transform="translate(9000,0)">
    <path d="M520 180 L520 720
      M520 720 A180 180 0 0 0 360 780" stroke="black" fill="none" stroke-width="18"/>
  </g>
  <g id="K" transform="translate(10000,0)">
    <path d="M280 180 L280 780
      M280 480 L720 180
      M280 480 L720 780" stroke="black" fill="none" stroke-width="18"/>
  </g>
  <g id="L" transform="translate(11000,0)">
    <path d="M280 180 L280 780
      M280 780 L680 780" stroke="black" fill="none" stroke-width="18"/>
  </g>
  <!-- Next row -->
  <g id="M" transform="translate(0,1000)">
    <path d="M280 780 L280 180
      M280 180 L500 480
      M500 480 L720 180
      M720 180 L720 780" stroke="black" fill="none" stroke-width="18" stroke-linejoin="miter"/>
  </g>
  <g id="N" transform="translate(1000,1000)">
    <path d="M280 780 L280 180
      M280 180 L720 780
      M720 780 L720 180" stroke="black" fill="none" stroke-width="18"/>
  </g>
  <g id="O" transform="translate(2000,1000)">
    <circle cx="500" cy="480" r="300" stroke="black" fill="none" stroke-width="18"/>
  </g>
  <g id="P" transform="translate(3000,1000)">
    <path d="M280 180 L280 780
      M280 180 A240 240 0 0 1 560 420" stroke="black" fill="none" stroke-width="18"/>
  </g>
  <g id="Q" transform="translate(4000,1000)">
    <circle cx="500" cy="480" r="300" stroke="black" fill="none" stroke-width="18"/>
    <path d="M620 620 L720 780" stroke="black" fill="none" stroke-width="18"/>
  </g>
  <g id="R" transform="translate(5000,1000)">
    <path d="M280 180 L280 780
      M280 180 A260 260 0 0 1 620 430
      M440 430 L720 780" stroke="black" fill="none" stroke-width="18"/>
  </g>
  <g id="S" transform="translate(6000,1000)">
    <path d="M620 260 A260 260 0 0 0 380 400
      M380 400 A260 260 0 0 0 620 620" stroke="black" fill="none" stroke-width="18"/>
  </g>
  <g id="T" transform="translate(7000,1000)">
    <path d="M320 180 L680 180
      M500 180 L500 780" stroke="black" fill="none" stroke-width="18"/>
  </g>
  <g id="U" transform="translate(8000,1000)">
    <path d="M280 180 L280 600
      M280 600 A220 220 0 0 0 720 600
      M720 600 L720 180" stroke="black" fill="none" stroke-width="18"/>
  </g>
  <g id="V" transform="translate(9000,1000)">
    <path d="M280 180 L500 780 L720 180" stroke="black" fill="none" stroke-width="18" stroke-linejoin="miter"/>
  </g>
  <g id="W" transform="translate(10000,1000)">
    <path d="M280 180 L420 780 L580 180 L720 780" stroke="black" fill="none" stroke-width="18" stroke-linejoin="miter"/>
  </g>
  <g id="X" transform="translate(11000,1000)">
    <path d="M280 180 L720 780
      M720 180 L280 780" stroke="black" fill="none" stroke-width="18"/>
  </g>
  <!-- Last letters -->
  <g id="Y" transform="translate(0,2000)">
    <path d="M280 180 L500 420
      M720 180 L500 420
      M500 420 L500 780" stroke="black" fill="none" stroke-width="18"/>
  </g>
  <g id="Z" transform="translate(1000,2000)">
    <path d="M320 180 L680 180
      M680 180 L320 780
      M320 780 L680 780" stroke="black" fill="none" stroke-width="18"/>
  </g>
  <!-- NUMBERS -->
  <g id="0" transform="translate(2000,2000)">
    <ellipse cx="500" cy="480" rx="300" ry="300" stroke="black" stroke-width="18" fill="none"/>
  </g>
  <g id="1" transform="translate(3000,2000)">
    <path d="M500 180 L500 780" stroke="black" stroke-width="18" fill="none"/>
  </g>
  <g id="2" transform="translate(4000,2000)">
    <path d="M360 260 A260 260 0 0 1 620 260
      M620 260 L360 780
      M360 780 L720 780" stroke="black" stroke-width="18" fill="none"/>
  </g>
  <g id="3" transform="translate(5000,2000)">
    <path d="M360 260 A260 260 0 0 1 620 260
      M380 480 A260 260 0 0 1 620 480
      M400 700 A220 220 0 0 1 600 700" stroke="black" stroke-width="18" fill="none"/>
  </g>
  <g id="4" transform="translate(6000,2000)">
    <path d="M620 180 L620 780
      M280 480 L720 480
      M280 180 L280 480" stroke="black" stroke-width="18" fill="none"/>
  </g>
  <g id="5" transform="translate(7000,2000)">
    <path d="M620 180 L320 180 L320 430
      M320 430 A260 260 0 0 0 620 430
      M620 430 L620 780 L320 780" stroke="black" stroke-width="18" fill="none"/>
  </g>
  <g id="6" transform="translate(8000,2000)">
    <path d="M620 260 A260 260 0 0 0 360 260
      M360 260 L360 740
      M360 740 A260 260 0 0 0 620 740" stroke="black" stroke-width="18" fill="none"/>
  </g>
  <g id="7" transform="translate(9000,2000)">
    <path d="M320 180 L680 180
      M680 180 L360 780
      M360 480 L680 480" stroke="black" stroke-width="18" fill="none"/>
  </g>
  <g id="8" transform="translate(10000,2000)">
    <ellipse cx="500" cy="340" rx="160" ry="120" stroke="black" stroke-width="18" fill="none"/>
    <ellipse cx="500" cy="620" rx="160" ry="120" stroke="black" stroke-width="18" fill="none"/>
  </g>
  <g id="9" transform="translate(11000,2000)">
    <path d="M360 260 A260 260 0 0 1 620 260
      M620 260 L620 740
      M620 740 A260 260 0 0 1 360 740" stroke="black" stroke-width="18" fill="none"/>
  </g>
  <!-- PUNCTUATION + SYMBOLS -->
  <g id="dot" transform="translate(0,3000)">
    <circle cx="500" cy="780" r="20" fill="black"/>
  </g>
  <g id="comma" transform="translate(1000,3000)">
    <path d="M500 780 A30 30 0 0 1 530 820" stroke="black" stroke-width="18" fill="none"/>
  </g>
  <g id="colon" transform="translate(2000,3000)">
    <circle cx="500" cy="560" r="20" fill="black"/>
    <circle cx="500" cy="740" r="20" fill="black"/>
  </g>
  <g id="dash" transform="translate(3000,3000)">
    <path d="M360 480 L640 480" stroke="black" stroke-width="18"/>
  </g>
  <g id="underscore" transform="translate(4000,3000)">
    <path d="M360 820 L640 820" stroke="black" stroke-width="18"/>
  </g>
  <g id="paren_left" transform="translate(5000,3000)">
    <path d="M380 180 A300 300 0 0 0 380 780" stroke="black" stroke-width="18" fill="none"/>
  </g>
  <g id="paren_right" transform="translate(6000,3000)">
    <path d="M620 180 A300 300 0 0 1 620 780" stroke="black" stroke-width="18" fill="none"/>
  </g>
  <!-- SPECIAL SYMBOLS -->
  <g id="infinity" transform="translate(7000,3000)">
    <path d="M360 480 C360 360, 500 360, 500 480
             C500 600, 640 600, 640 480
             C640 360, 500 360, 500 480
             C500 600, 360 600, 360 480" stroke="black" stroke-width="18" fill="none"/>
  </g>
  <g id="circle" transform="translate(8000,3000)">
    <circle cx="500" cy="480" r="300" stroke="black" fill="none" stroke-width="18"/>
  </g>
  <g id="triangle" transform="translate(9000,3000)">
    <path d="M500 180 L280 780 L720 780 Z" stroke="black" fill="none" stroke-width="18"/>
  </g>
  <g id="ariaone_logo" transform="translate(10000,3000)">
    <circle cx="500" cy="480" r="300" stroke="black" fill="none" stroke-width="18"/>
    <path d="M500 200 L300 740 L700 740 Z" stroke="black" fill="none" stroke-width="18"/>
  </g>

</svg>
